<svg id="Слой_1" data-name="Слой 1" xmlns="http://www.w3.org/2000/svg" viewBox="0 0 150 190"><defs><style>.cls-1{fill-rule:evenodd;}</style></defs><path class="cls-1" d="M104.91,84.7l-.58,17.65L92,114.55l-1.09,33h-5l-4.3-30.36-12.94.19L68,58.73c2.12,0,4.72,0,7.66,0,7,0,10.32,4.14,13.43,11.92C95.35,64,105.21,60,118.87,66.16L122,93.83l-5.21,2.9ZM67.59,44.92s.73-5.41,7.29-8.28C81.6,39.48,82,44.13,82,44.13l0,11.11L68,52.57ZM63.91,86.69c-.78-.62-6.15-4.87-7.63-6.06a9,9,0,0,1-3-6.39l5.29-9.06.21-33.84-3.69-4.77L60.39,2.28l1.29-.79,4.2,19.68-1.81,2.15Zm0,2.57-.14,58.07-5.76.09.18-26.72-7,6.48-1.71,19.94-5.16.16-1.81-24.74,7.32-16.06L49.88,93c-3.83-2.12-9.66-1.87-9.66,15.47l-11.59,2.81C24,82.59,46.32,81.06,53.77,89.15Zm38.21,57.83-5,.39L95.2,117.72l9.15-8.3Z"/></svg>